<svg width="50" height="50" viewBox="0 0 50 50" fill="none" xmlns="http://www.w3.org/2000/svg">
<path d="M25.3961 26.6992H19.2852C18.4222 26.6992 17.7227 27.3988 17.7227 28.2617C17.7227 29.1247 18.4222 29.8242 19.2852 29.8242H25.3961C26.259 29.8242 26.9586 29.1247 26.9586 28.2617C26.9586 27.3988 26.259 26.6992 25.3961 26.6992Z" fill="#005387"/>
<path d="M23.4461 2.98792C24.2195 3.37074 24.5351 4.30824 24.1507 5.08167L23.2398 6.91917L25.0773 7.83167C25.8507 8.21605 26.1664 9.15199 25.782 9.92542C25.3992 10.6989 24.4601 11.0145 23.6882 10.6301L20.0961 8.8473C19.5195 8.56136 19.2851 7.86292 19.5711 7.28636L21.3539 3.69261C21.7367 2.91917 22.6742 2.60355 23.4476 2.98792H23.4461Z" fill="#005387"/>
<path d="M27.5047 36.3148H7.18906C4.0875 36.3148 1.5625 33.7914 1.5625 30.6883V18.4977C1.5625 15.3961 4.08594 12.8711 7.18906 12.8711H27.5047C30.6063 12.8711 33.1313 15.3945 33.1313 18.4977V30.6883C33.1313 33.7898 30.6078 36.3148 27.5047 36.3148ZM7.18906 15.9977C5.80937 15.9977 4.6875 17.1195 4.6875 18.4992V30.6898C4.6875 32.068 5.80937 33.1914 7.18906 33.1914H27.5047C28.8844 33.1914 30.0063 32.0695 30.0063 30.6898V18.4992C30.0063 17.1211 28.8844 15.9977 27.5047 15.9977H7.18906Z" fill="#005387"/>
<path d="M3.12109 19.8281H31.5648V22.9531H3.12109V19.8281Z" fill="#005387"/>
<path d="M28.1242 45.3133C22.7586 45.3133 17.6992 43.2398 13.8742 39.4773C12.4648 38.0883 11.2664 36.5086 10.3164 34.7789L13.0539 33.2727C13.8602 34.7367 14.8727 36.0742 16.0664 37.2508C19.3023 40.4352 23.5852 42.1898 28.1258 42.1898C37.6023 42.1898 45.3133 34.4789 45.3133 25.0023C45.3133 15.5258 37.6023 7.81484 28.1258 7.81484C26.3117 7.81484 24.5258 8.09609 22.8211 8.64922L21.857 5.67734C23.8742 5.02266 25.9836 4.69141 28.1258 4.69141C39.3258 4.69141 48.4383 13.8039 48.4383 25.0039C48.4383 36.2039 39.3258 45.3164 28.1258 45.3164L28.1242 45.3133Z" fill="#005387"/>
</svg>
