<svg width="50" height="50" viewBox="0 0 50 50" fill="none" xmlns="http://www.w3.org/2000/svg">
<path fill-rule="evenodd" clip-rule="evenodd" d="M25 26.043C22.4125 26.043 20.3125 28.143 20.3125 30.7305C20.3125 33.318 22.4125 35.418 25 35.418C27.5875 35.418 29.6875 33.318 29.6875 30.7305C29.6875 28.143 27.5875 26.043 25 26.043ZM25 29.168C25.8625 29.168 26.5625 29.868 26.5625 30.7305C26.5625 31.593 25.8625 32.293 25 32.293C24.1375 32.293 23.4375 31.593 23.4375 30.7305C23.4375 29.868 24.1375 29.168 25 29.168Z" fill="#005387"/>
<path fill-rule="evenodd" clip-rule="evenodd" d="M23.4375 33.8555V39.0638C23.4375 39.9263 24.1375 40.6263 25 40.6263C25.8625 40.6263 26.5625 39.9263 26.5625 39.0638V33.8555C26.5625 32.993 25.8625 32.293 25 32.293C24.1375 32.293 23.4375 32.993 23.4375 33.8555Z" fill="#005387"/>
<path fill-rule="evenodd" clip-rule="evenodd" d="M41.9129 25.0026C41.9129 21.838 39.3483 19.2734 36.1837 19.2734C30.3171 19.2734 19.6837 19.2734 13.8171 19.2734C10.6525 19.2734 8.08789 21.838 8.08789 25.0026V41.6693C8.08789 44.8339 10.6525 47.3984 13.8171 47.3984H36.1837C39.3483 47.3984 41.9129 44.8339 41.9129 41.6693V25.0026ZM38.7879 25.0026V41.6693C38.7879 43.1068 37.6233 44.2734 36.1837 44.2734C30.3171 44.2734 19.6837 44.2734 13.8171 44.2734C12.3775 44.2734 11.2129 43.1068 11.2129 41.6693V25.0026C11.2129 23.5651 12.3775 22.3984 13.8171 22.3984H36.1837C37.6233 22.3984 38.7879 23.5651 38.7879 25.0026Z" fill="#005387"/>
<path fill-rule="evenodd" clip-rule="evenodd" d="M25.0007 2.60547C21.8236 2.60547 18.7757 3.86797 16.5298 6.1138C14.284 8.35964 13.0215 11.4076 13.0215 14.5846V20.8346C13.0215 21.6971 13.7215 22.3971 14.584 22.3971H35.4173C36.2798 22.3971 36.9798 21.6971 36.9798 20.8346V14.5846C36.9798 11.4076 35.7173 8.35964 33.4715 6.1138C31.2257 3.86797 28.1777 2.60547 25.0007 2.60547ZM25.0007 5.73047C27.3486 5.73047 29.6007 6.6638 31.2611 8.32422C32.9215 9.98464 33.8548 12.2367 33.8548 14.5846V19.2721H16.1465V14.5846C16.1465 12.2367 17.0798 9.98464 18.7402 8.32422C20.4007 6.6638 22.6527 5.73047 25.0007 5.73047Z" fill="#005387"/>
</svg>
