<svg width="50" height="50" viewBox="0 0 50 50" fill="none" xmlns="http://www.w3.org/2000/svg">
<g clip-path="url(#clip0_2048_132)">
<path d="M25 7.8125C22.5769 7.8125 20.6055 9.78389 20.6055 12.207C20.6055 13.016 21.2613 13.6719 22.0703 13.6719C22.8793 13.6719 23.5352 13.016 23.5352 12.207C23.5352 11.3993 24.1923 10.7422 25 10.7422C25.8077 10.7422 26.4648 11.3993 26.4648 12.207C26.4648 12.7253 26.1864 13.2103 25.7383 13.4728C24.3588 14.2809 23.5352 15.6492 23.5352 17.133V18.0664C23.5352 18.8754 24.191 19.5312 25 19.5312C25.809 19.5312 26.4648 18.8754 26.4648 18.0664V17.1331C26.4648 16.5098 26.9923 16.1336 27.2191 16.0007C28.5609 15.2146 29.3945 13.761 29.3945 12.207C29.3945 9.78389 27.4231 7.8125 25 7.8125Z" fill="#005387"/>
<path d="M25 25.3906C25.809 25.3906 26.4648 24.7348 26.4648 23.9258C26.4648 23.1168 25.809 22.4609 25 22.4609C24.191 22.4609 23.5352 23.1168 23.5352 23.9258C23.5352 24.7348 24.191 25.3906 25 25.3906Z" fill="#005387"/>
<path d="M25 0C16.1151 0 8.88672 7.22842 8.88672 16.1133C8.88672 19.7624 10.1453 23.3374 12.4307 26.1798C14.5535 28.8199 15.7227 32.1812 15.7227 35.6445V39.7461C15.7227 41.6558 16.9474 43.284 18.6523 43.8887V45.6055C18.6523 48.0286 20.6237 50 23.0469 50H26.9531C29.3763 50 31.3477 48.0286 31.3477 45.6055V43.8887C33.0526 43.284 34.2773 41.6558 34.2773 39.7461V35.6445C34.2773 32.1812 35.4465 28.8199 37.5694 26.1798C39.8547 23.3374 41.1133 19.7624 41.1133 16.1133C41.1133 7.22842 33.8849 0 25 0ZM28.418 45.6055C28.418 46.4132 27.7608 47.0703 26.9531 47.0703H23.0469C22.2392 47.0703 21.582 46.4132 21.582 45.6055V44.1406H28.418V45.6055ZM31.3477 39.7461C31.3477 40.5538 30.6905 41.2109 29.8828 41.2109H20.1172C19.3095 41.2109 18.6523 40.5538 18.6523 39.7461V37.0605H31.3477V39.7461ZM35.2862 24.3439C33.038 27.14 31.6847 30.606 31.4034 34.2285H18.5966C18.3153 30.606 16.9621 27.14 14.7139 24.3439C12.8184 21.9865 11.8164 19.1403 11.8164 16.1133C11.8164 8.84385 17.7306 2.92969 25 2.92969C32.2694 2.92969 38.1836 8.84385 38.1836 16.1133C38.1836 19.1403 37.1816 21.9865 35.2862 24.3439Z" fill="#005387"/>
<path d="M48.5352 14.6484H45.6055C44.7965 14.6484 44.1406 15.3043 44.1406 16.1133C44.1406 16.9223 44.7965 17.5781 45.6055 17.5781H48.5352C49.3441 17.5781 50 16.9223 50 16.1133C50 15.3043 49.3441 14.6484 48.5352 14.6484Z" fill="#005387"/>
<path d="M4.39453 17.5781C5.20352 17.5781 5.85938 16.9223 5.85938 16.1133C5.85938 15.3043 5.20352 14.6484 4.39453 14.6484H1.46484C0.655859 14.6484 0 15.3043 0 16.1133C0 16.9223 0.655859 17.5781 1.46484 17.5781H4.39453Z" fill="#005387"/>
<path d="M44.8706 10.4766L47.6235 9.47457C48.3838 9.19791 48.7756 8.35728 48.499 7.59703C48.2223 6.83678 47.3817 6.44488 46.6214 6.72154L43.8685 7.72359C43.1083 8.00025 42.7164 8.84088 42.993 9.60113C43.2697 10.3614 44.1104 10.7533 44.8706 10.4766Z" fill="#005387"/>
<path d="M5.13121 21.7528L2.37828 22.7548C1.61803 23.0315 1.22613 23.8721 1.50279 24.6324C1.77945 25.3926 2.62008 25.7845 3.38033 25.5079L6.13326 24.5058C6.89351 24.2292 7.28541 23.3885 7.00875 22.6283C6.73209 21.868 5.89137 21.4761 5.13121 21.7528Z" fill="#005387"/>
<path d="M47.6235 22.7548L44.8706 21.7528C44.1104 21.4761 43.2698 21.868 42.9931 22.6283C42.7163 23.3885 43.1083 24.2291 43.8686 24.5058L46.6215 25.5079C47.3817 25.7845 48.2223 25.3926 48.499 24.6324C48.7758 23.8721 48.3837 23.0315 47.6235 22.7548Z" fill="#005387"/>
<path d="M6.13135 7.72359L3.37842 6.72154C2.61816 6.44488 1.77764 6.83678 1.50088 7.59703C1.22412 8.35728 1.61611 9.19781 2.37637 9.47457L5.1293 10.4766C5.88955 10.7533 6.73008 10.3614 7.00683 9.60113C7.28359 8.84088 6.8916 8.00025 6.13135 7.72359Z" fill="#005387"/>
</g>
<defs>
<clipPath id="clip0_2048_132">
<rect width="50" height="50" fill="white"/>
</clipPath>
</defs>
</svg>
