<svg width="50" height="50" viewBox="0 0 50 50" fill="none" xmlns="http://www.w3.org/2000/svg">
<path d="M25.8125 13.3594H13.3125C12.8981 13.3594 12.5007 13.524 12.2076 13.817C11.9146 14.11 11.75 14.5075 11.75 14.9219C11.75 15.3363 11.9146 15.7337 12.2076 16.0267C12.5007 16.3198 12.8981 16.4844 13.3125 16.4844H25.8125C26.2269 16.4844 26.6243 16.3198 26.9174 16.0267C27.2104 15.7337 27.375 15.3363 27.375 14.9219C27.375 14.5075 27.2104 14.11 26.9174 13.817C26.6243 13.524 26.2269 13.3594 25.8125 13.3594Z" fill="#005387"/>
<path d="M25.8125 21.7188H13.3125C12.8981 21.7188 12.5007 21.8834 12.2076 22.1764C11.9146 22.4694 11.75 22.8668 11.75 23.2812C11.75 23.6957 11.9146 24.0931 12.2076 24.3861C12.5007 24.6791 12.8981 24.8437 13.3125 24.8438H25.8125C26.2269 24.8438 26.6243 24.6791 26.9174 24.3861C27.2104 24.0931 27.375 23.6957 27.375 23.2812C27.375 22.8668 27.2104 22.4694 26.9174 22.1764C26.6243 21.8834 26.2269 21.7188 25.8125 21.7188Z" fill="#005387"/>
<path d="M25.8125 30.2656H13.3125C12.8981 30.2656 12.5007 30.4302 12.2076 30.7233C11.9146 31.0163 11.75 31.4137 11.75 31.8281C11.75 32.2425 11.9146 32.64 12.2076 32.933C12.5007 33.226 12.8981 33.3906 13.3125 33.3906H25.8125C26.2269 33.3906 26.6243 33.226 26.9174 32.933C27.2104 32.64 27.375 32.2425 27.375 31.8281C27.375 31.4137 27.2104 31.0163 26.9174 30.7233C26.6243 30.4302 26.2269 30.2656 25.8125 30.2656Z" fill="#005387"/>
<path d="M40.422 1.5625H9.57821C8.77664 1.56454 7.98336 1.72471 7.24379 2.03382C6.50422 2.34293 5.83291 2.79492 5.2683 3.36388C4.70369 3.93285 4.25687 4.60762 3.95345 5.34953C3.65003 6.09145 3.49597 6.88594 3.50008 7.6875V45.7969C3.49906 46.1879 3.60215 46.5722 3.79876 46.9103C3.99537 47.2483 4.27842 47.5279 4.61884 47.7204C4.95926 47.9129 5.34477 48.0113 5.7358 48.0055C6.12682 47.9997 6.50926 47.89 6.84383 47.6875L12.5938 44.2344C12.6806 44.1804 12.7807 44.1517 12.8829 44.1517C12.9851 44.1517 13.0852 44.1804 13.172 44.2344L19.5626 48.0625C19.8987 48.2767 20.289 48.3906 20.6876 48.3906C21.0886 48.3885 21.4821 48.2807 21.8282 48.0781L28.2501 44.2344C28.3368 44.1804 28.437 44.1517 28.5391 44.1517C28.6413 44.1517 28.7415 44.1804 28.8282 44.2344L34.547 47.6875C34.8826 47.8869 35.2659 47.9922 35.6563 47.9922C36.0468 47.9922 36.43 47.8869 36.7657 47.6875C37.1018 47.4953 37.3813 47.2179 37.5761 46.8832C37.7709 46.5485 37.874 46.1685 37.8751 45.7812V19.4375H42.7813C43.7663 19.4334 44.7098 19.0403 45.4063 18.3438C46.1029 17.6472 46.496 16.7038 46.5001 15.7188V7.6875C46.5042 6.88594 46.3501 6.09145 46.0467 5.34953C45.7433 4.60762 45.2965 3.93285 44.7319 3.36388C44.1673 2.79492 43.4959 2.34293 42.7564 2.03382C42.0168 1.72471 41.2235 1.56454 40.422 1.5625ZM34.7501 44.1563L30.4376 41.5625C29.8631 41.2214 29.2073 41.0414 28.5391 41.0414C27.871 41.0414 27.2152 41.2214 26.6407 41.5625L20.7032 45.125L14.7813 41.5469C14.2 41.1991 13.5347 41.0168 12.8573 41.0196C12.1799 41.0223 11.5161 41.2101 10.9376 41.5625L6.62508 44.1719V7.6875C6.61886 7.29576 6.69065 6.90671 6.83628 6.54299C6.9819 6.17927 7.19844 5.84816 7.47328 5.56896C7.74813 5.28975 8.07578 5.06802 8.43716 4.91669C8.79854 4.76536 9.18642 4.68745 9.57821 4.6875H35.3907C34.9781 5.47359 34.7585 6.34661 34.7501 7.23438V44.1094V44.1563ZM43.3751 15.7188C43.3751 15.8762 43.3125 16.0272 43.2012 16.1386C43.0898 16.2499 42.9388 16.3125 42.7813 16.3125H37.8751V7.28125C37.8689 6.94287 37.9301 6.60663 38.0553 6.2922C38.1805 5.97777 38.3671 5.69144 38.6043 5.44996C38.8414 5.20847 39.1243 5.01667 39.4364 4.88575C39.7485 4.75484 40.0835 4.68744 40.422 4.6875C41.2052 4.6875 41.9563 4.99863 42.5101 5.55245C43.0639 6.10627 43.3751 6.85741 43.3751 7.64062V15.7188Z" fill="#005387"/>
</svg>
